<svg xmlns="http://www.w3.org/2000/svg" xmlns:xlink="http://www.w3.org/1999/xlink" width="30" height="30" viewBox="0 0 30 30" version="1.1">
    <!-- Generator: Sketch 49 (51002) - http://www.bohemiancoding.com/sketch -->
    <title>Facebook</title>
    <desc>Created with Sketch.</desc>
    <defs/>
    <g id="Page-1" stroke="none" stroke-width="1" fill="none" fill-rule="evenodd">
        <g id="Option1" transform="translate(-1215.000000, -6405.000000)" fill="#FFFFFF">
            <g id="Facebook" transform="translate(1215.000000, 6405.000000)">
                <path d="M0,15 C0,6.71572834 6.71572834,0 15,0 C23.2842717,0 30,6.71572834 30,15 C30,23.2842717 23.2842717,30 15,30 C6.71572834,30 0,23.2842717 0,15 Z M16.5634719,23.8196729 L16.5634719,15.658881 L18.8162074,15.658881 L19.1147435,12.8466269 L16.5634719,12.8466269 L16.5672993,11.4390667 C16.5672993,10.7055875 16.6369896,10.3125726 17.6904776,10.3125726 L19.0987961,10.3125726 L19.0987961,7.5 L16.8457416,7.5 C14.1394609,7.5 13.1869203,8.8642458 13.1869203,11.1584782 L13.1869203,12.8469454 L11.5,12.8469454 L11.5,15.6591995 L13.1869203,15.6591995 L13.1869203,23.8196729 L16.5634719,23.8196729 Z" id="Combined-Shape"/>
            </g>
        </g>
    </g>
</svg>